<svg width="84" height="92" viewBox="0 0 84 92" fill="none" xmlns="http://www.w3.org/2000/svg">
<path d="M13.152 71.77L2.42028 64.3403C2.15707 64.1581 2 63.8583 2 63.5382V28.0061C2 27.669 2.17407 27.3557 2.46036 27.1777L41.4847 2.9064C41.8002 2.71019 42.1998 2.71019 42.5153 2.9064L81.5396 27.1777C81.8259 27.3557 82 27.669 82 28.0061V63.5496C82 63.8634 81.8491 64.158 81.5944 64.3414L71.3505 71.717C70.7052 72.1816 69.8049 71.7204 69.8049 70.9252V33.3923C69.8049 33.0442 69.6194 32.7224 69.3181 32.548L42.4932 17.0178C42.1885 16.8414 41.8124 16.8428 41.509 17.0216L15.1632 32.5468C14.8656 32.7222 14.6829 33.0419 14.6829 33.3873V70.9678C14.6829 71.7548 13.799 72.2179 13.152 71.77Z" stroke="white" stroke-width="3.90244"/>
<path d="M35.1566 33.7164L24.9127 39.8627C24.6188 40.039 24.439 40.3566 24.439 40.6993V75.2795C24.439 75.5806 24.578 75.8648 24.8157 76.0496L41.4092 88.9557C41.7577 89.2267 42.2448 89.23 42.5969 88.9635L59.6619 76.0494C59.9056 75.865 60.0488 75.5771 60.0488 75.2715V40.6754C60.0488 40.3457 59.8823 40.0383 59.6061 39.8582L50.3378 33.8137C49.6889 33.3905 48.8293 33.8561 48.8293 34.6309V70.3766C48.8293 70.6916 48.6771 70.9873 48.4207 71.1704L42.6407 75.299C42.2669 75.5661 41.7573 75.5361 41.4174 75.227L36.9535 71.1689C36.7501 70.984 36.6341 70.7219 36.6341 70.447V34.553C36.6341 33.7946 35.8069 33.3262 35.1566 33.7164Z" stroke="white" stroke-width="3.90244"/>
</svg>
